<?xml version="1.0" encoding="UTF-8" standalone="no"?>
<svg
   width="256"
   height="256"
   version="1.1"
   viewBox="-18.3 -18.3 292.6 292.6"
   id="svg27"
   sodipodi:docname="twiskers.svg"
   inkscape:version="1.4.4 (dcaf3e7d9e, 2026-05-05)"
   xmlns:inkscape="http://www.inkscape.org/namespaces/inkscape"
   xmlns:sodipodi="http://sodipodi.sourceforge.net/DTD/sodipodi-0.dtd"
   xmlns="http://www.w3.org/2000/svg"
   xmlns:svg="http://www.w3.org/2000/svg">
  <sodipodi:namedview
     id="namedview27"
     pagecolor="#505050"
     bordercolor="#eeeeee"
     borderopacity="1"
     inkscape:showpageshadow="0"
     inkscape:pageopacity="0"
     inkscape:pagecheckerboard="0"
     inkscape:deskcolor="#505050"
     inkscape:zoom="0.73828125"
     inkscape:cx="-221.46032"
     inkscape:cy="-21.671958"
     inkscape:window-width="1707"
     inkscape:window-height="995"
     inkscape:window-x="0"
     inkscape:window-y="0"
     inkscape:window-maximized="1"
     inkscape:current-layer="svg27" />
  <defs
     id="defs22">
    <linearGradient
       id="fillGradient"
       x2="0"
       y2="1">
      <stop
         stop-color="#e4c0a5"
         offset="0"
         id="stop1"
         style="stop-color:#b08166;stop-opacity:1;" />
      <stop
         stop-color="#d09062"
         offset="0.09"
         id="stop2"
         style="stop-color:#9d6849;stop-opacity:1;" />
      <stop
         stop-color="#d59467"
         offset="0.60000002"
         id="stop3"
         style="stop-color:#a1714e;stop-opacity:1;" />
      <stop
         stop-color="#d7996f"
         offset="0.67000002"
         id="stop4"
         style="stop-color:#b7835e;stop-opacity:1;" />
      <stop
         stop-color="#d7986f"
         offset="0.89999998"
         id="stop5"
         style="stop-color:#b27b5b;stop-opacity:1;" />
      <stop
         stop-color="#d18957"
         offset="1"
         id="stop6"
         style="stop-color:#a76c44;stop-opacity:1;" />
    </linearGradient>
    <linearGradient
       id="strokeGradient"
       x1=".45"
       x2=".55"
       y2="1">
      <stop
         stop-color="#dec2b0"
         offset="0"
         id="stop7"
         style="stop-color:#634e40;stop-opacity:1;" />
      <stop
         stop-color="#d1ab8f"
         offset="0.05"
         id="stop8"
         style="stop-color:#785e50;stop-opacity:1;" />
      <stop
         stop-color="#bf9d88"
         offset="0.18000001"
         id="stop9"
         style="stop-color:#735e4e;stop-opacity:1;" />
      <stop
         stop-color="#423024"
         offset="1"
         id="stop10"
         style="stop-color:#3c2c21;stop-opacity:1;" />
    </linearGradient>
    <linearGradient
       id="screenFillGradient"
       x1="1"
       x2="0"
       y1="1">
      <stop
         stop-color="#161412"
         offset="0"
         id="stop11" />
      <stop
         stop-color="#1f1b19"
         offset=".14"
         id="stop12" />
      <stop
         stop-color="#38312e"
         offset=".68"
         id="stop13" />
      <stop
         stop-color="#3e3732"
         offset=".71"
         id="stop14" />
      <stop
         stop-color="#38322e"
         offset=".83"
         id="stop15" />
      <stop
         stop-color="#544d45"
         offset="1"
         id="stop16" />
    </linearGradient>
    <linearGradient
       id="screenStrokeGradient"
       x1=".45"
       x2=".55"
       y2="1">
      <stop
         stop-color="#725240"
         offset="0"
         id="stop17" />
      <stop
         stop-color="#87624a"
         offset=".30"
         id="stop18" />
      <stop
         stop-color="#c4a692"
         offset="0.52999997"
         id="stop19"
         style="stop-color:#473429;stop-opacity:1;" />
      <stop
         stop-color="#cbb19f"
         offset="1"
         id="stop20"
         style="stop-color:#423026;stop-opacity:1;" />
    </linearGradient>
    <linearGradient
       id="bracketsColor">
      <stop
         stop-color="#e8ccb0"
         offset="0"
         id="stop21" />
      <stop
         stop-color="#e8ccb0"
         offset="1"
         id="stop22" />
    </linearGradient>
    <filter
       id="blurFilter"
       x="-0.018325158"
       y="-0.051270784"
       width="1.0366503"
       height="1.1025416"
       color-interpolation-filters="sRGB">
      <feGaussianBlur
         stdDeviation="1.1553096"
         id="feGaussianBlur22" />
    </filter>
  </defs>
  <rect
     x="2"
     y="2"
     width="252"
     height="252"
     ry="56"
     fill="url(#fillGradient)"
     stroke="url(#strokeGradient)"
     stroke-width="4"
     id="rect22" />
  <path
     d="         m39 30         c          50 -8 126 -8 176 0         12.5 2 17.4 4.4 20 20          6 36 6 71 0 107         -2.6 15.6 -7.5 18 -20 20          -50 8 -126 8 -176 0         -12.5 -2 -17.4 -4.4 -20 -20          -6 -36 -6 -71 0 -107         2.6 -15.6 7.5 -18 20 -20          z"
     fill="url(#screenFillGradient)"
     stroke="url(#screenStrokeGradient)"
     stroke-width="7"
     id="path22" />
  <circle
     cx="205"
     cy="212"
     r="16"
     fill="none"
     stroke="#000"
     stroke-linejoin="round"
     stroke-width="9"
     id="circle22" />
  <path
     d="m34.5 206.5h129"
     stroke="#000"
     stroke-linecap="round"
     stroke-linejoin="round"
     stroke-width="9"
     id="path23" />
  <path
     d="m40.5 223.5h123"
     stroke="#000"
     stroke-linecap="round"
     stroke-linejoin="round"
     stroke-width="9"
     id="path24" />
  <path
     d="m105.47 124.92c-1.8212 0.0129-3.2132 0.38621-3.9198 1.2176-2.9926 3.3254 2.1618 17.126 8.3131 24.775-0.31468 1.2587-0.54998 2.523-0.69047 3.8232-7.6238-6.0102-17.942-8.7191-26.816-5.6514 10.094 1.3062 18.831 4.479 26.757 9.8205 0.0857 1.083 0.24248 2.1513 0.47463 3.2008-10.716-7.1427-25.441-9.2702-36.044-2.5461 13.277-2.0748 25.519 0.45533 37.108 6.0533 0.35054 0.90291 0.75884 1.7866 1.2152 2.6522-11.386-5.963-27.767-6.6955-33.501 1.7697 12.44-3.9515 23.463-2.8762 35.224 1.0661 0.91098 1.3114 2.0918 4.0775 3.6388 7.8371 20.474 0.25758 42.102-0.26247 64.294-2.0406 1.3127-1.7854 2.945-4.6056 3.8848-5.9932 11.535-3.7778 22.394-4.7533 34.622-0.86936-5.6308-8.3128-21.529-7.756-32.882-2.0869 0.43284-0.8518 0.82056-1.7188 1.1532-2.6021 11.425-5.4112 23.486-7.8278 36.551-5.7862-10.428-6.6128-24.838-4.6609-35.505 2.199 0.22048-1.0516 0.36559-2.1153 0.43766-3.1864 7.7924-5.1398 16.373-8.2091 26.255-9.4878-8.7057-3.0092-18.797-0.45629-26.375 5.3151-0.14509-1.1819-0.36596-2.3368-0.65351-3.487 5.8192-7.6486 10.807-21.615 7.8147-24.775-2.9933-3.1587-16.628 0.6665-24.942 5.8207-6.4848-3.3254-14.299-5.3211-22.613-5.3211-8.4797 0-16.295 1.9956-22.78 5.3211-6.2352-3.8657-15.557-7.0772-21.021-7.0383z"
     clip-rule="evenodd"
     fill="#1d1917"
     fill-opacity=".38"
     fill-rule="evenodd"
     filter="url(#blurFilter)"
     stroke-width="1.6627"
     style="mix-blend-mode:screen"
     id="path25" />
  <path
     d="m57.139 131.2v-14.665l24.6-13.05q3.1196-1.6174 6.8618-2.4803-3.7423-0.75474-6.8618-2.372l-24.6-13.05v-14.782l40.998 22.433v15.419z"
     fill="url(#bracketsColor)"
     id="path26" />
  <path
     d="m198.4 131.2-40.998-22.433v-15.419l40.998-22.529v14.665l-24.6 13.05q-3.1196 1.6174-6.8619 2.4803 3.7423 0.75473 6.8619 2.372l24.6 13.05z"
     fill="url(#bracketsColor)"
     id="path27" />
</svg>
